<?xml version="1.0" encoding="UTF-8" standalone="no"?>
<!-- Created with Inkscape (http://www.inkscape.org/) -->

<svg
   xmlns:dc="http://purl.org/dc/elements/1.1/"
   xmlns:cc="http://creativecommons.org/ns#"
   xmlns:rdf="http://www.w3.org/1999/02/22-rdf-syntax-ns#"
   xmlns:svg="http://www.w3.org/2000/svg"
   xmlns="http://www.w3.org/2000/svg"
   xmlns:sodipodi="http://sodipodi.sourceforge.net/DTD/sodipodi-0.dtd"
   xmlns:inkscape="http://www.inkscape.org/namespaces/inkscape"
   width="211"
   height="211"
   viewBox="0 0 211 211"
   id="svg2"
   version="1.1"
   inkscape:version="0.91 r13725"
   sodipodi:docname="ㄴㅁㅇㅋ - 흰색 가지.svg">
  <defs
     id="defs4" />
  <sodipodi:namedview
     id="base"
     pagecolor="#ffffff"
     bordercolor="#666666"
     borderopacity="1.0"
     inkscape:pageopacity="0.0"
     inkscape:pageshadow="2"
     inkscape:zoom="3.569046"
     inkscape:cx="43.870273"
     inkscape:cy="112.18322"
     inkscape:document-units="px"
     inkscape:current-layer="layer1"
     showgrid="false"
     units="px"
     inkscape:window-width="1920"
     inkscape:window-height="1017"
     inkscape:window-x="-8"
     inkscape:window-y="-8"
     inkscape:window-maximized="1" />
  <metadata
     id="metadata7">
    <rdf:RDF>
      <cc:Work
         rdf:about="">
        <dc:format>image/svg+xml</dc:format>
        <dc:type
           rdf:resource="http://purl.org/dc/dcmitype/StillImage" />
        <dc:title></dc:title>
      </cc:Work>
    </rdf:RDF>
  </metadata>
  <g
     inkscape:label="Layer 1"
     inkscape:groupmode="layer"
     id="layer1"
     transform="translate(0,-841.36225)">
    <path
       style="fill:#ffffff;fill-opacity:1;fill-rule:nonzero;stroke:none;stroke-opacity:1"
       d="M 67.242188 84.34375 L 55.238281 89.335938 L 70.142578 125.17188 L 61 129.01562 L 66.039062 141 L 107.89453 123.40234 L 115.22266 141 L 126.30078 136.38672 L 125.89258 135.4082 L 156.23242 122.49609 L 151.14062 110.53516 L 120.89648 123.4082 L 112.07812 102.23047 L 101 106.84375 L 102.89844 111.40039 L 82.126953 120.13281 L 67.242188 84.34375 z "
       transform="translate(0,841.36225)"
       id="rect4173" />
    <path
       inkscape:connector-curvature="0"
       style="fill:#ffffff;fill-opacity:1;fill-rule:nonzero;stroke:none;stroke-width:0.94477087;stroke-opacity:1"
       d="m 54.625,891.86225 a 19.5,19.5 0 0 0 -19.5,19.5 19.5,19.5 0 0 0 19.5,19.5 19.5,19.5 0 0 0 19.5,-19.5 19.5,19.5 0 0 0 -19.5,-19.5 z m 0,12 a 7.5,7.5 0 0 1 7.5,7.5 7.5,7.5 0 0 1 -7.5,7.5 7.5,7.5 0 0 1 -7.5,-7.5 7.5,7.5 0 0 1 7.5,-7.5 z"
       id="path4166-6" />
    <path
       inkscape:connector-curvature="0"
       style="fill:#ffffff;fill-opacity:1;fill-rule:nonzero;stroke:none;stroke-width:0.94477087;stroke-opacity:1"
       d="m 100.05561,909.47212 a 19.5,19.5 0 0 0 -19.500001,19.5 19.5,19.5 0 0 0 19.500001,19.5 19.5,19.5 0 0 0 19.5,-19.5 19.5,19.5 0 0 0 -19.5,-19.5 z m 0,12 a 7.5,7.5 0 0 1 7.5,7.5 7.5,7.5 0 0 1 -7.5,7.5 7.5,7.5 0 0 1 -7.500001,-7.5 7.5,7.5 0 0 1 7.500001,-7.5 z"
       id="path4166-6-2" />
    <circle
       style="fill:#ffffff;fill-opacity:1;fill-rule:nonzero;stroke:none;stroke-opacity:1"
       id="path4209"
       cx="121.27229"
       cy="980.10126"
       r="6.5" />
    <path
       inkscape:connector-curvature="0"
       style="fill:#ffffff;fill-opacity:1;fill-rule:nonzero;stroke:none;stroke-width:0.94477087;stroke-opacity:1"
       d="m 169.93336,931.1544 a 19.5,19.5 0 0 0 -19.5,19.5 19.5,19.5 0 0 0 19.5,19.49997 19.5,19.5 0 0 0 19.5,-19.49997 19.5,19.5 0 0 0 -19.5,-19.5 z m 0,12 a 7.5,7.5 0 0 1 7.5,7.5 7.5,7.5 0 0 1 -7.5,7.5 7.5,7.5 0 0 1 -7.5,-7.5 7.5,7.5 0 0 1 7.5,-7.5 z"
       id="path4166-60" />
  </g>
  <g
     inkscape:groupmode="layer"
     id="layer2"
     inkscape:label="Layer 2">
    <path
       style="fill:#ffffff;fill-opacity:1;fill-rule:nonzero;stroke:none;stroke-width:0.94477087;stroke-opacity:1"
       d="M 48.5 124 A 19.5 19.5 0 0 0 29 143.5 A 19.5 19.5 0 0 0 48.5 163 A 19.5 19.5 0 0 0 68 143.5 A 19.5 19.5 0 0 0 48.5 124 z M 48.5 136 A 7.5 7.5 0 0 1 56 143.5 A 7.5 7.5 0 0 1 48.5 151 A 7.5 7.5 0 0 1 41 143.5 A 7.5 7.5 0 0 1 48.5 136 z "
       id="path4166" />
  </g>
</svg>
